<svg width="800" height="800" viewBox="0 0 800 800" fill="none" xmlns="http://www.w3.org/2000/svg">
<path d="M333.531 575.641C346.123 601.355 352.764 630.091 352.764 658.691V714.873C352.764 727.923 342.199 738.487 329.15 738.487C316.101 738.487 305.536 727.922 305.536 714.873V658.691C305.536 637.237 300.555 615.703 291.101 596.398L224.567 460.467C221.521 454.266 213.977 451.727 207.867 454.73C202.08 457.562 199.358 464.483 201.69 470.508L233.238 551.666C237.944 563.818 231.926 577.52 219.768 582.25C207.683 586.931 193.938 580.938 189.183 568.78L157.658 487.622C152.843 475.226 152.745 462.091 156.163 449.994C154.906 430.103 148.302 328.736 143.041 296.795C142.302 292.425 137.737 289.288 133.049 289.843C128.319 290.362 124.767 294.354 124.816 299.115L116.655 523.083C115.984 541.443 122.356 559.107 134.569 572.827L205.071 651.935C208.94 656.238 211.07 661.841 211.07 667.633V714.868C211.07 727.917 200.505 738.482 187.456 738.482C174.407 738.482 163.842 727.917 163.842 714.868V676.635L99.3157 604.241C78.9298 581.39 68.3407 551.952 69.4751 521.355L77.605 298.433C77.3547 270.376 98.9862 246.047 127.928 242.872C157.677 239.717 184.867 259.932 189.647 289.119C193.541 312.721 197.899 368.343 200.676 407.766C226.94 402.084 254.711 414.523 266.997 439.718L333.531 575.641Z" fill="#D2B48C"/>
<path d="M722.406 299.5L730.524 521.375C731.659 551.959 721.069 581.384 700.702 604.236L636.152 676.63V714.875C636.152 727.924 625.587 738.489 612.538 738.489C599.488 738.489 588.924 727.924 588.924 714.875V667.64C588.924 661.854 591.048 656.251 594.923 651.936L665.45 572.828C677.651 559.107 684.011 541.444 683.345 523.109L675.203 300.172C675.228 294.349 671.675 290.357 666.945 289.845C661.983 289.417 657.674 292.42 656.978 296.748C651.699 328.73 645.088 430.146 643.831 450.001C647.231 462.092 647.127 475.221 642.311 487.61L610.805 568.768C606.05 580.92 592.354 586.896 580.221 582.238C568.069 577.508 562.044 563.812 566.75 551.654L598.275 470.496C600.631 464.472 597.903 457.557 592.117 454.718C585.958 451.74 578.469 454.303 575.417 460.443L508.895 596.4C499.441 615.7 494.46 637.239 494.46 658.692V714.874C494.46 727.924 483.895 738.489 470.846 738.489C457.797 738.489 447.232 727.923 447.232 714.874V658.692C447.232 630.09 453.879 601.362 466.465 575.642L532.999 439.71C545.298 414.546 573.074 402.114 599.319 407.789C602.096 368.367 606.461 312.72 610.373 289.087C615.128 259.96 642.081 239.692 672.067 242.878C701.004 246.058 722.634 270.385 722.409 299.5L722.406 299.5Z" fill="#D2B48C"/>
<path d="M541.687 384.25C554.737 384.25 565.301 373.679 565.301 360.636V208.414L576.392 215.348C587.5 222.281 602.063 218.851 608.935 207.828C615.857 196.769 612.488 182.206 601.44 175.284L412.518 57.2062C404.859 52.4332 395.129 52.4332 387.47 57.2062L198.548 175.284C187.501 182.206 184.131 196.769 191.053 207.828C197.95 218.888 212.506 222.263 223.597 215.348L234.693 208.414V360.636C234.693 373.679 245.258 384.25 258.307 384.25H541.698H541.687ZM329.141 218.937V337.016H281.906V178.891L399.984 105.081L518.062 178.891L518.069 337.016H470.834V218.931C470.834 205.888 460.269 195.317 447.22 195.317H352.756C339.707 195.317 329.142 205.888 329.142 218.931L329.141 218.937ZM423.605 337.022H376.37V242.558H423.605V337.022Z" fill="#22C55E"/>
</svg>
